<?xml version="1.0" encoding="utf-8"?>
<!-- Generator: Adobe Illustrator 25.2.3, SVG Export Plug-In . SVG Version: 6.00 Build 0)  -->
<svg version="1.1" id="Layer_1" xmlns="http://www.w3.org/2000/svg" xmlns:xlink="http://www.w3.org/1999/xlink" x="0px" y="0px"
	 viewBox="0 0 16 17" style="enable-background:new 0 0 16 17;" xml:space="preserve">
<style type="text/css">
	.st0{fill:none;}
	.st1{stroke:#000000;stroke-linecap:round;}
</style>
<g>
	<g transform="translate(-444 994)">
		<path class="st0" d="M447-977c-1.7,0-3-1.3-3-3v-9c0-1.7,1.3-3,3-3h0.2c0.4-1.2,1.6-2,2.8-2h4c1.3,0,2.4,0.8,2.8,2h0.2
			c1.7,0,3,1.3,3,3v9c0,1.7-1.3,3-3,3H447z"/>
		<path d="M457-978c1.1,0,2-0.9,2-2v-9c0-1.1-0.9-2-2-2h-0.2h-0.7l-0.2-0.7c-0.3-0.8-1-1.3-1.9-1.3h-4c-0.8,0-1.6,0.5-1.9,1.3
			l-0.2,0.7h-0.7H447c-1.1,0-2,0.9-2,2v9c0,1.1,0.9,2,2,2H457 M457-977h-10c-1.7,0-3-1.3-3-3v-9c0-1.7,1.3-3,3-3h0.2
			c0.4-1.2,1.5-2,2.8-2h4c1.3,0,2.4,0.8,2.8,2h0.2c1.7,0,3,1.3,3,3v9C460-978.3,458.7-977,457-977z"/>
	</g>
	<g>
		<path d="M8,12.2c-0.8,0-1.5-0.2-2.2-0.5c-0.2-0.1-0.3-0.3-0.2-0.5s0.3-0.3,0.5-0.2c1.1,0.6,2.5,0.6,3.6,0c0.2-0.1,0.4,0,0.5,0.2
			s0,0.4-0.2,0.5C9.5,12,8.8,12.2,8,12.2z"/>
	</g>
	<g transform="translate(119.016 29.104)">
		<circle cx="-112.5" cy="-20.6" r="0.5"/>
		<rect x="-112.5" y="-20.6" class="st1" width="0" height="0"/>
	</g>
	<g transform="translate(122.016 29.104)">
		<circle cx="-112.5" cy="-20.6" r="0.5"/>
		<rect x="-112.5" y="-20.6" class="st1" width="0" height="0"/>
	</g>
</g>
</svg>
