<svg xmlns="http://www.w3.org/2000/svg" width="15.646" height="15.646" viewBox="0 0 15.646 15.646"><defs><style>.a{fill:#fff;}</style></defs><path class="a" d="M7.823,0C5.7,0,5.432.01,4.6.047A5.768,5.768,0,0,0,2.7.411a3.831,3.831,0,0,0-1.386.9A3.817,3.817,0,0,0,.411,2.7,5.752,5.752,0,0,0,.047,4.6C.008,5.432,0,5.7,0,7.823s.01,2.391.047,3.225a5.772,5.772,0,0,0,.364,1.9,3.836,3.836,0,0,0,.9,1.386,3.825,3.825,0,0,0,1.386.9,5.776,5.776,0,0,0,1.9.364c.834.039,1.1.047,3.225.047s2.391-.01,3.225-.047a5.789,5.789,0,0,0,1.9-.364,4,4,0,0,0,2.288-2.288,5.772,5.772,0,0,0,.364-1.9c.039-.834.047-1.1.047-3.225S15.636,5.432,15.6,4.6a5.785,5.785,0,0,0-.364-1.9,3.84,3.84,0,0,0-.9-1.386,3.812,3.812,0,0,0-1.386-.9,5.755,5.755,0,0,0-1.9-.364C10.214.008,9.948,0,7.823,0Zm0,1.408c2.088,0,2.337.01,3.162.046a4.31,4.31,0,0,1,1.452.271,2.574,2.574,0,0,1,1.485,1.484,4.319,4.319,0,0,1,.269,1.452c.037.825.046,1.073.046,3.162s-.01,2.337-.048,3.162a4.4,4.4,0,0,1-.274,1.452,2.484,2.484,0,0,1-.586.9,2.441,2.441,0,0,1-.9.584,4.351,4.351,0,0,1-1.457.269c-.831.037-1.075.046-3.168.046s-2.338-.01-3.168-.048a4.436,4.436,0,0,1-1.458-.274,2.423,2.423,0,0,1-.9-.586,2.375,2.375,0,0,1-.587-.9,4.44,4.44,0,0,1-.274-1.457c-.029-.821-.04-1.075-.04-3.158s.01-2.338.04-3.169a4.435,4.435,0,0,1,.274-1.456,2.319,2.319,0,0,1,.587-.9,2.314,2.314,0,0,1,.9-.585,4.33,4.33,0,0,1,1.448-.274C5.457,1.4,5.7,1.389,7.794,1.389Zm0,2.4A4.017,4.017,0,1,0,11.84,7.823,4.017,4.017,0,0,0,7.823,3.806Zm0,6.625a2.608,2.608,0,1,1,2.608-2.608A2.607,2.607,0,0,1,7.823,10.431Zm5.115-6.783A.939.939,0,1,1,12,2.709.939.939,0,0,1,12.938,3.647Z"/></svg>