<svg xmlns="http://www.w3.org/2000/svg" width="29.698" height="19.726" viewBox="0 0 29.698 19.726"><defs><style>.a{fill:#fff;}.b,.c{fill:#161615;}.c,.d,.e{fill-rule:evenodd;}.d{fill:#004085;}.e{fill:#d9000d;}</style></defs><g transform="translate(-163.556 -132.542)"><rect class="a" width="29.698" height="19.726" transform="translate(163.556 132.542)"/><g transform="translate(168.268 134.49)"><rect class="b" width="4.935" height="0.898" transform="translate(0 4.1) rotate(-56.185)"/><rect class="b" width="4.935" height="0.898" transform="translate(1.013 4.778) rotate(-56.185)"/><rect class="b" width="4.935" height="0.898" transform="matrix(0.557, -0.831, 0.831, 0.557, 2.025, 5.457)"/></g><g transform="translate(168.268 144.364)"><rect class="b" width="0.898" height="4.935" transform="translate(2.025 0.5) rotate(-33.815)"/><path class="c" d="M192.864,193.022l-1.285-1.918-.746.5,1.285,1.918.746-.5ZM191.4,190.84l-.746.5-1.285-1.918.746-.5Z" transform="translate(-188.359 -188.244)"/><rect class="b" width="0.898" height="4.935" transform="translate(0 1.856) rotate(-33.815)"/></g><g transform="translate(183.026 144.365)"><path class="c" d="M255.934,193.022l1.285-1.918.746.5-1.285,1.918-.746-.5Zm1.461-2.182.746.5,1.285-1.918-.746-.5Z" transform="translate(-254.921 -188.244)"/><path class="c" d="M251.367,189.963l1.285-1.918.746.5-1.285,1.918-.746-.5Zm1.461-2.182.746.5,1.285-1.918-.746-.5Z" transform="translate(-251.367 -185.863)"/><path class="c" d="M260.5,196.081l1.285-1.918.746.5-1.285,1.918-.746-.5Zm1.462-2.182.746.5,1.285-1.918-.746-.5Z" transform="translate(-258.475 -190.625)"/></g><g transform="translate(183.026 134.49)"><rect class="b" width="0.898" height="4.935" transform="translate(1.013 1.178) rotate(-33.815)"/><path class="c" d="M260.5,141.827l1.285,1.918.746-.5-1.285-1.918-.746.5Zm1.462,2.182.746-.5,1.285,1.918-.746.5Z" transform="translate(-258.475 -141.327)"/><path class="c" d="M255.933,144.885l1.285,1.918.746-.5-1.285-1.918-.746.5Zm1.462,2.182.746-.5,1.285,1.918-.746.5Z" transform="translate(-254.92 -143.707)"/><path class="c" d="M251.366,147.944l1.285,1.918.746-.5-1.285-1.918-.746.5Zm1.462,2.182.746-.5,1.285,1.918-.746.5Z" transform="translate(-251.366 -146.088)"/></g><g transform="translate(173.428 137.548)"><path class="d" d="M212.991,170.738a2.451,2.451,0,0,1-4.73-.9,2.551,2.551,0,0,1,.188-.957,4.783,4.783,0,0,0-.369,1.856,4.908,4.908,0,0,0,9.449,1.863,2.49,2.49,0,0,0,.19-.955,2.451,2.451,0,0,0-4.729-.9Z" transform="translate(-208.081 -165.827)"/><path class="e" d="M213.6,160.024a2.451,2.451,0,0,1,4.729.906,2.55,2.55,0,0,1-.188.957,4.781,4.781,0,0,0,.37-1.856,4.908,4.908,0,0,0-9.449-1.867,2.488,2.488,0,0,0-.191.955,2.451,2.451,0,0,0,4.729.906Z" transform="translate(-208.697 -155.12)"/></g></g></svg>