<?xml version="1.0" encoding="utf-8"?>
<!-- Generator: Adobe Illustrator 25.2.3, SVG Export Plug-In . SVG Version: 6.00 Build 0)  -->
<svg version="1.1" id="Layer_1" xmlns="http://www.w3.org/2000/svg" xmlns:xlink="http://www.w3.org/1999/xlink" x="0px" y="0px"
	 viewBox="0 0 62 62" style="enable-background:new 0 0 62 62;" xml:space="preserve">
<style type="text/css">
	.st0{fill:#FFFFFF;}
	.st1{fill:#F6EC36;}
</style>
<g>
	<path class="st0" d="M46.5,21.6c-2.5,0-4.3,1-5.5,2.4c-0.1-0.3-0.3-0.6-0.6-0.9c-1-1.1-2.5-1.6-4.6-1.6c-2.1,0-3.8,0.6-5,1.7
		c-0.6-1-2.1-1.7-3.9-1.7c-2.3,0-4.8,0.3-6.3,2.7c0-0.9-0.1-1.3-0.6-1.8c-0.6-0.6-1.6-0.8-2.5-0.8c-1.7,0-3,0.7-3.9,2.3
		c-1.3,2.1-4.6,9.2-4.5,12.6c0,2.2,1.5,3.8,4.2,3.9c2.1,0,3.7-0.5,4.7-1.5c0.9,1,2.3,1.6,4,1.6c1.9,0,3.8-0.6,4.9-1.8
		c0.9,1.2,2.4,1.8,4.3,1.8c2.4,0,4.6-1.1,6.1-3c0.8,2.1,2.8,3,4.9,3c4.8,0,6.9-3.3,8.6-8.5c0.5-1.5,0.9-3.1,1-4.8
		C52.1,24.5,50.9,21.6,46.5,21.6L46.5,21.6z"/>
	<path class="st1" d="M46.6,20.4c-2,0-3.8,0.5-5.3,1.8c-1.2-1.2-3-1.8-5.4-1.8c-1.7,0-3.4,0.4-4.8,1.3c-1-0.8-2.2-1.3-4-1.3
		c-1.7,0-4.1,0.1-5.8,1.6c-0.4-0.8-1.3-1.5-3.6-1.5c-2.1,0-4,1.1-5,2.9c-1.5,2.4-4.8,9.5-4.7,13.3c0.1,2.9,2.2,4.9,5.4,5
		c1.9,0,3.5-0.4,4.7-1.2c1.2,0.8,2.6,1.3,4.1,1.2c1.7,0,3.4-0.4,4.8-1.4c1.2,0.9,2.8,1.4,4.3,1.4c2.2,0,4.3-0.8,5.9-2.2
		c1.1,1.4,3.1,2.2,5.4,2.2c4.4,0,6.7-2.7,8.4-6.2c0.6-1.3,1.8-4.6,2.1-6.4l0,0c0.3-2.2,0.5-4.2-0.9-6.3C51,21.4,49.2,20.4,46.6,20.4
		z M51.6,27.2c-0.1,1.6-0.5,3.2-1,4.7c-1.7,5.1-3.7,8.2-8.3,8.2c-1.4,0-3.7-0.4-4.6-2.8l-0.2-0.6l-0.4,0.5c-1.4,1.8-3.6,2.9-5.9,2.9
		c-1.8,0-3.2-0.6-4.1-1.7L27,38.1l-0.3,0.3c-1,1.1-2.7,1.7-4.6,1.7c-1.6,0-2.9-0.5-3.8-1.5L18,38.4l-0.3,0.3c-1,1-2.5,1.5-4.5,1.4
		c-2.4-0.1-3.8-1.4-3.8-3.5c-0.1-3.3,3.1-10.3,4.5-12.4c0.9-1.4,2-2.1,3.6-2.1c1.1,0,1.8,0.2,2.2,0.7c0.4,0.4,0.5,0.8,0.5,1.6l0,1.1
		l0.6-0.9c1.4-2.3,3.7-2.6,6.1-2.6c1.6,0,3,0.6,3.6,1.5l0.2,0.3l0.3-0.3c1.3-1.1,3-1.6,4.7-1.6c2,0,3.5,0.5,4.4,1.5
		c0.2,0.2,0.4,0.5,0.5,0.8l0.2,0.5l0.3-0.4c1.3-1.5,3.1-2.3,5.2-2.3c1.7,0,3,0.5,3.9,1.4C51.5,24.5,51.7,26.1,51.6,27.2L51.6,27.2z"
		/>
	<path id="Path_8" d="M52.7,21.5v-0.3H53c0.2,0,0.3,0.1,0.3,0.2c0,0.1-0.1,0.2-0.2,0.2L52.7,21.5z M53.6,22.2l-0.1-0.2
		c-0.1-0.2-0.2-0.2-0.3-0.3v0c0.2,0,0.3-0.2,0.3-0.3c0-0.2-0.1-0.3-0.4-0.3h-0.6v1.2h0.3v-0.5h0c0.1,0,0.2,0,0.2,0.1
		c0.1,0.1,0.1,0.2,0.2,0.2l0.1,0.2L53.6,22.2L53.6,22.2z M53,20.6c0.5,0,0.9,0.4,1,0.9c0,0.5-0.4,0.9-0.9,1c-0.5,0-0.9-0.4-1-0.9
		c0,0,0,0,0,0C52,21,52.4,20.6,53,20.6L53,20.6z M53,20.4c-0.7,0-1.2,0.5-1.2,1.2c0,0.7,0.5,1.2,1.2,1.2c0.6,0,1.2-0.5,1.2-1.2v0
		C54.1,20.9,53.6,20.4,53,20.4C53,20.4,53,20.4,53,20.4L53,20.4L53,20.4z M46.5,21.6c-2.5,0-4.3,1-5.5,2.4c-0.1-0.3-0.3-0.6-0.6-0.9
		c-1-1.1-2.5-1.6-4.6-1.6c-2.1,0-3.8,0.6-5,1.7c-0.6-1-2.1-1.7-3.9-1.7c-2.3,0-4.8,0.3-6.3,2.7c0-0.9-0.1-1.3-0.6-1.8
		c-0.6-0.6-1.6-0.8-2.5-0.8c-1.7,0-3,0.7-3.9,2.3c-1.3,2.1-4.6,9.2-4.5,12.6c0,2.2,1.5,3.8,4.2,3.9c2.1,0,3.7-0.5,4.7-1.5
		c0.9,1,2.3,1.6,4,1.6c1.9,0,3.8-0.6,4.9-1.8c0.9,1.2,2.4,1.8,4.3,1.8c2.4,0,4.6-1.1,6.1-3c0.8,2.1,2.8,3,4.9,3
		c4.8,0,6.9-3.3,8.6-8.5c0.5-1.5,0.9-3.1,1-4.8C52.1,24.5,50.9,21.6,46.5,21.6L46.5,21.6z M14.8,34.7c2.5-0.4,3.1,0.5,3,1.3
		c-0.2,2.5-2.5,3-4.5,3c-1.4,0-2.7-0.7-2.7-2.3c-0.1-2.9,2.9-9.6,4.3-11.8c0.6-1.1,1.4-1.6,2.7-1.6c1.2,0,1.5,0.6,1.5,1.3
		C19,26.5,15.9,32.4,14.8,34.7L14.8,34.7z M22.9,32.4c-0.2,0.4-0.5,1.4-0.7,2.3c0.8-0.2,1.6-0.3,2.5-0.3c1.2,0,1.9,0.5,1.9,1.5
		c0,2.4-2.6,3.1-4.4,3.1c-2,0-3.8-1.1-3.8-3.3c0-2.6,1.4-6.4,2.7-9c1.6-3.2,3.2-3.6,6.1-3.6c1.2,0,2.7,0.5,2.7,1.7
		c0,1.6-1.4,2.2-2.7,2.3c-0.7,0-1.3,0.1-2,0c-0.4,0.6-0.7,1.3-0.9,1.9c2.5-0.4,3.6,0.2,3.2,1.7C26.7,32.6,24.9,32.8,22.9,32.4
		L22.9,32.4z M35.3,26.3c-0.7,0-1.1,0.4-1.5,0.9c-0.7,1-2.3,5.1-2.6,6.8c-0.2,1.2,0.3,1.4,0.9,1.4c0.9,0,1.9-0.9,2.2-2.5
		c0,0-1.7,0-1.2-1.5c0.4-1.4,1.3-1.7,2.7-1.8c2.8-0.1,2.5,1.9,2.3,3c-0.7,3.5-3.2,6.4-6.8,6.4c-2.4,0-4-1.3-4-3.8
		c0-1.8,0.9-4.6,1.6-6.2c1.5-3.5,3-5.9,7-5.9c2.4,0,4.3,0.9,4,3.1c-0.2,1.6-1,2.6-2.5,2.7c-0.4,0-2.1,0-1.6-1.6
		C36,26.7,36.1,26.3,35.3,26.3L35.3,26.3z M50.2,29.2c-0.5,2.2-1.3,4.4-2.4,6.4c-1.7,3-3.7,3.4-5.5,3.4s-3.8-0.7-3.8-3.4
		c0-2,0.8-4.7,1.6-6.5c1.3-3.3,2.5-6,6.6-5.9C51.4,23.2,50.6,27.4,50.2,29.2L50.2,29.2z M46.2,26.3c-0.4,0-0.9,0.2-1.1,0.6
		c-0.7,0.9-2.8,6.6-2.8,7.8c0,0.4,0.3,0.7,0.7,0.8c0,0,0.1,0,0.1,0c0.6,0,0.9-0.4,1.2-0.9c0.7-1.1,2.5-6.1,2.6-7.4
		C46.9,26.8,46.8,26.3,46.2,26.3L46.2,26.3z"/>
</g>
</svg>
