<svg xmlns="http://www.w3.org/2000/svg" width="15.723" height="15.723" viewBox="0 0 15.723 15.723"><defs><style>.a{fill:#fff;}</style></defs><path class="a" d="M-538.138,0A7.861,7.861,0,0,0-546,7.862a7.861,7.861,0,0,0,7.862,7.862,7.861,7.861,0,0,0,7.862-7.862A7.861,7.861,0,0,0-538.138,0Zm3.951,6.372c0,.079,0,.161,0,.244a5.357,5.357,0,0,1-5.393,5.393,5.283,5.283,0,0,1-2.9-.857,3.5,3.5,0,0,0,.452.027,3.811,3.811,0,0,0,2.354-.81,1.892,1.892,0,0,1-1.769-1.317,1.792,1.792,0,0,0,.358.035,1.877,1.877,0,0,0,.5-.067A1.9,1.9,0,0,1-542.1,7.162V7.138a1.864,1.864,0,0,0,.857.236,1.887,1.887,0,0,1-.845-1.576,1.9,1.9,0,0,1,.256-.951,5.378,5.378,0,0,0,3.907,1.981,1.755,1.755,0,0,1-.051-.433A1.9,1.9,0,0,1-536.083,4.5a1.885,1.885,0,0,1,1.384.6,3.845,3.845,0,0,0,1.2-.46,1.894,1.894,0,0,1-.833,1.049,3.838,3.838,0,0,0,1.089-.3A3.879,3.879,0,0,1-534.188,6.372Z" transform="translate(546)"/></svg>