<svg xmlns="http://www.w3.org/2000/svg" width="18.738" height="13.202" viewBox="0 0 18.738 13.202"><defs><style>.a{fill:#fff;}</style></defs><path class="a" d="M18.346,5.607a2.355,2.355,0,0,0-1.657-1.668,55.6,55.6,0,0,0-7.32-.394,55.62,55.62,0,0,0-7.321.394A2.355,2.355,0,0,0,.392,5.607,24.675,24.675,0,0,0,0,10.146a24.675,24.675,0,0,0,.392,4.539,2.355,2.355,0,0,0,1.657,1.668,55.6,55.6,0,0,0,7.32.394,55.62,55.62,0,0,0,7.321-.394,2.355,2.355,0,0,0,1.657-1.668,24.723,24.723,0,0,0,.391-4.539A24.675,24.675,0,0,0,18.346,5.607ZM7.452,12.932V7.36l4.9,2.786Z" transform="translate(0 -3.545)"/></svg>