<?xml version="1.0" encoding="utf-8"?>
<!-- Generator: Adobe Illustrator 25.2.3, SVG Export Plug-In . SVG Version: 6.00 Build 0)  -->
<svg version="1.1" id="Layer_1" xmlns="http://www.w3.org/2000/svg" xmlns:xlink="http://www.w3.org/1999/xlink" x="0px" y="0px"
	 viewBox="0 0 24 24" style="enable-background:new 0 0 24 24;" xml:space="preserve">
<style type="text/css">
	.st0{fill:#FFFFFF;}
</style>
<path class="st0" d="M4.5,4.2c0.7,0.6,1,0.6,2.4,0.5l13.2-0.8c0.3,0,0-0.3,0-0.3L17.9,2c-0.4-0.3-1-0.7-2.1-0.6L3,2.3
	c-0.5,0-0.6,0.3-0.4,0.5L4.5,4.2z M5.3,7.3v13.9c0,0.7,0.4,1,1.2,1L21,21.3c0.8,0,0.9-0.6,0.9-1.2V6.4c0-0.6-0.2-0.9-0.7-0.9L6,6.4
	C5.4,6.4,5.3,6.7,5.3,7.3L5.3,7.3z M19.6,8c0.1,0.4,0,0.8-0.4,0.9l-0.7,0.1v10.3c-0.6,0.3-1.2,0.5-1.6,0.5c-0.7,0-0.9-0.2-1.5-0.9
	l-4.6-7.2v7l1.4,0.3c0,0,0,0.8-1.2,0.8L7.8,20c-0.1-0.2,0-0.7,0.3-0.7L9,19V9.9L7.8,9.8C7.7,9.3,8,8.7,8.6,8.7l3.5-0.2l4.8,7.3V9.3
	l-1.2-0.1c-0.1-0.5,0.3-0.9,0.7-0.9L19.6,8z M1.9,1l13.3-1c1.6-0.1,2.1,0,3.1,0.7l4.2,3c0.7,0.5,0.9,0.7,0.9,1.2v16.4
	c0,1-0.4,1.6-1.7,1.7L6.4,24c-1,0-1.4-0.1-2-0.7l-3.1-4.1c-0.6-0.7-0.8-1.3-0.8-2V2.7C0.5,1.8,0.9,1.1,1.9,1z"/>
</svg>
